<svg viewBox="0 0 408.6 106.3"
												preserveAspectRatio="xMinYMid meet">
												<title>Banque Nationale</title>
												<g>
													<g>
														<path class="logo-icon"
															d="M72.8,24.3c-2,0.5-3.4,0.8-4.9,0.2c-1.1-0.4-2-1.7-2.8-2.8L51.5,3.1c-0.8-1.1-1.7-2.3-2.8-2.8 c-1.5-0.6-2.9-0.2-4.9,0.2L0,12.3v81.6l43.9-11.7c2-0.4,3.5-0.8,4.9-0.2c1.1,0.5,2,1.7,2.8,2.8l13.5,18.6c0.8,1.1,1.7,2.3,2.8,2.8 c1.5,0.5,2.9,0.2,4.9-0.2L116.7,94V12.5L72.8,24.3z">
														</path>
														<path class="logo-txt"
															d="M168.2,28.5c1.4-0.7,4.3-2.1,4.3-7.1c0-3.6-2.2-8.9-10.7-8.9h-9.6l-7.3,3.6v31.1h14.7c7.1,0,9-1.2,11-3.1 c1.8-1.8,3-4.4,3-7.2C173.6,33.5,172.5,30.1,168.2,28.5 M151.9,18.5h8.3c3.3,0,5.3,0.9,5.3,3.7c0,2.8-2.3,3.9-5.1,3.9h-8.5V18.5z M160.8,41.2h-8.9v-9.3h9.2c2.6,0,5.2,1.2,5.2,4.2C166.3,39.7,164.3,41.2,160.8,41.2">
														</path>
														<polygon class="logo-txt"
															points="341.2,41.1 341.2,41.1 322,41.1 322,32.1 335.4,32.1 338.9,25.9 322,25.9 322,18.6 336.8,18.6 340.4,12.5 322.7,12.5 314.9,16.3 314.9,47.2 337.7,47.2">
														</polygon>
														<path class="logo-txt"
															d="M273.2,42.2c2.1-2.7,3.6-6.7,3.6-12.4c0-16.3-12.1-18.3-16.7-18.3c-0.3,0-0.7,0-1.1,0l-11.9,5.8 c-2.1,2.7-3.6,6.7-3.6,12.4c0,16.3,12.1,18.3,16.7,18.3c2,0,5.6-0.4,8.9-2.3l4.1,3.9l3.8-3.9L273.2,42.2z M268,37.3l-3.7-3.4 l-3.7,3.9l3.5,3.3c-1.3,0.7-2.7,0.9-3.9,0.9c-3.9,0-9.4-2.4-9.4-12.1s5.5-12.1,9.4-12.1c3.9,0,9.4,2.4,9.4,12.1 C269.6,33.1,269,35.5,268,37.3">
														</path>
														<path class="logo-txt"
															d="M302,16.1v19.3c0,4.2-2,6.6-7,6.6c-3.4,0-6.2-2.1-6.2-7V12.5h0l-7.4,3.6v19.4c0.1,3.5,0.8,6.3,2.7,8.4 c3.1,3.4,7.8,4.2,11,4.2c8.7,0,14.3-3.9,14.3-13V12.5h0L302,16.1z">
														</path>
														<polygon class="logo-txt"
															points="232,15.8 232,36.7 231.9,36.7 218.1,12.5 210.5,16.2 210.5,47.2 217.2,47.2 217.2,22.5 217.3,22.5 231.5,47.2 238.7,47.2 238.7,12.5">
														</polygon>
														<path class="logo-txt"
															d="M195.2,12.5L195.2,12.5l-10.1,4.9l-10.6,29.8h7.6l2.4-7.1h12.8l2.2,7.1h7.9L195.2,12.5z M186.5,34.1l4.4-13.7 h0.1l4.3,13.7H186.5z">
														</path>
														<polygon class="logo-txt"
															points="408.6,87.9 408.6,87.9 389.4,87.9 389.4,78.9 402.7,78.9 406.3,72.8 389.4,72.8 389.4,65.5 404.2,65.5 407.8,59.3 390.1,59.3 382.3,63.2 382.3,94 405.1,94">
														</polygon>
														<polygon class="logo-txt"
															points="166.4,62.6 166.4,83.5 166.3,83.5 152.6,59.3 144.9,63.1 144.9,94 151.7,94 151.7,69.3 151.8,69.3 166,94 173.2,94 173.2,59.3">
														</polygon>
														<path class="logo-txt"
															d="M197.4,59.3L197.4,59.3l-10.1,4.9L176.7,94h7.6l2.4-7.2h12.8l2.2,7.2h7.9L197.4,59.3z M188.6,80.9l4.4-13.7 h0.1l4.3,13.7H188.6z">
														</path>
														<path class="logo-txt"
															d="M339.1,59.3L339.1,59.3L329,64.3L318.4,94h7.6l2.4-7.2h12.8l2.2,7.2h7.9L339.1,59.3z M330.4,80.9l4.4-13.7h0.1l4.3,13.7H330.4z">
														</path>
														<polygon class="logo-txt"
															points="233.5,59.3 208.9,59.3 205.3,65.4 205.3,65.5 215.8,65.5 215.8,94 223.1,94 223.1,65.5 230,65.5">
														</polygon>
														<polygon class="logo-txt"
															points="236.4,62.9 236.4,94 243.7,94 243.7,59.3 243.7,59.3">
														</polygon>
														<path class="logo-txt"
															d="M265.1,58.4c-0.3,0-0.7,0-1.1,0l-12,5.9c-2.1,2.7-3.6,6.7-3.6,12.4c0,16.3,12.1,18.3,16.7,18.3 c4.6,0,16.7-2,16.7-18.3C281.8,60.4,269.7,58.4,265.1,58.4 M265.1,88.8c-3.9,0-9.4-2.4-9.4-12.1c0-9.7,5.5-12.1,9.4-12.1 c3.9,0,9.4,2.4,9.4,12.1C274.5,86.4,269,88.8,265.1,88.8">
														</path>
														<polygon class="logo-txt"
															points="308.1,62.6 308.1,83.5 308,83.5 294.2,59.3 286.6,63.1 286.6,94 293.3,94 293.3,69.3 293.4,69.3 307.6,94 314.8,94 314.8,59.3">
														</polygon>
														<polygon class="logo-txt"
															points="379.4,87.8 362.2,87.8 362.2,59.3 354.9,62.9 354.9,94 375.8,94">
														</polygon>
													</g>
												</g>
											</svg>